<mxfile>
    <diagram id="sGyF9RormThGsXX5U5nF" name="Page-1">
        <mxGraphModel dx="773" dy="502" grid="1" gridSize="10" guides="1" tooltips="1" connect="1" arrows="1" fold="1" page="1" pageScale="1" pageWidth="827" pageHeight="1169" math="0" shadow="0">
            <root>
                <mxCell id="0"/>
                <mxCell id="1" parent="0"/>
                <mxCell id="2" value="&lt;b&gt;WeaponBuilder&lt;/b&gt;" style="rounded=0;whiteSpace=wrap;html=1;" vertex="1" parent="1">
                    <mxGeometry x="300" y="120" width="140" height="40" as="geometry"/>
                </mxCell>
                <mxCell id="3" value="-weapon: AssaultWeapon" style="rounded=0;whiteSpace=wrap;html=1;" vertex="1" parent="1">
                    <mxGeometry x="300" y="160" width="140" height="40" as="geometry"/>
                </mxCell>
                <mxCell id="4" value="+addOptic()&lt;br&gt;+addLaser()&lt;br&gt;+changeAmmunition()&lt;br&gt;+changeColor()&lt;br&gt;+build()" style="rounded=0;whiteSpace=wrap;html=1;" vertex="1" parent="1">
                    <mxGeometry x="300" y="200" width="140" height="90" as="geometry"/>
                </mxCell>
                <mxCell id="5" value="AssaultWeapon" style="rounded=0;whiteSpace=wrap;html=1;" vertex="1" parent="1">
                    <mxGeometry x="520" y="120" width="120" height="40" as="geometry"/>
                </mxCell>
                <mxCell id="6" value="-optic: boolean&lt;br&gt;-laser: boolean&lt;br&gt;-ammunition: number&lt;br&gt;-color: string" style="rounded=0;whiteSpace=wrap;html=1;" vertex="1" parent="1">
                    <mxGeometry x="520" y="160" width="120" height="80" as="geometry"/>
                </mxCell>
                <mxCell id="7" value="" style="endArrow=classic;html=1;exitX=1;exitY=0.5;exitDx=0;exitDy=0;entryX=0;entryY=0.5;entryDx=0;entryDy=0;" edge="1" parent="1" source="3" target="5">
                    <mxGeometry width="50" height="50" relative="1" as="geometry">
                        <mxPoint x="440" y="210" as="sourcePoint"/>
                        <mxPoint x="490" y="160" as="targetPoint"/>
                    </mxGeometry>
                </mxCell>
                <mxCell id="8" value="M16" style="rounded=0;whiteSpace=wrap;html=1;" vertex="1" parent="1">
                    <mxGeometry x="520" y="280" width="120" height="40" as="geometry"/>
                </mxCell>
                <mxCell id="9" value="" style="endArrow=classic;html=1;entryX=0.5;entryY=1;entryDx=0;entryDy=0;" edge="1" parent="1" target="6">
                    <mxGeometry width="50" height="50" relative="1" as="geometry">
                        <mxPoint x="580" y="280" as="sourcePoint"/>
                        <mxPoint x="610" y="250" as="targetPoint"/>
                    </mxGeometry>
                </mxCell>
            </root>
        </mxGraphModel>
    </diagram>
</mxfile>